<?xml version="1.0" encoding="UTF-8" standalone="no"?>
<!-- Generator: Adobe Illustrator 16.0.4, SVG Export Plug-In . SVG Version: 6.00 Build 0)  -->

<svg
   xmlns:dc="http://purl.org/dc/elements/1.1/"
   xmlns:cc="http://creativecommons.org/ns#"
   xmlns:rdf="http://www.w3.org/1999/02/22-rdf-syntax-ns#"
   xmlns:svg="http://www.w3.org/2000/svg"
   xmlns="http://www.w3.org/2000/svg"
   xmlns:sodipodi="http://sodipodi.sourceforge.net/DTD/sodipodi-0.dtd"
   xmlns:inkscape="http://www.inkscape.org/namespaces/inkscape"
   version="1.1"
   x="0px"
   y="0px"
   width="28.051px"
   height="21.724px"
   viewBox="0 0 28.051 21.724"
   enable-background="new 0 0 28.051 21.724"
   xml:space="preserve"
   id="svg2"
   inkscape:version="0.91 r13725"
   sodipodi:docname="new icons_live.svg"><metadata
     id="metadata25"><rdf:RDF><cc:Work
         rdf:about=""><dc:format>image/svg+xml</dc:format><dc:type
           rdf:resource="http://purl.org/dc/dcmitype/StillImage" /></cc:Work></rdf:RDF></metadata><defs
     id="defs23" /><sodipodi:namedview
     pagecolor="#ffffff"
     bordercolor="#666666"
     borderopacity="1"
     objecttolerance="10"
     gridtolerance="10"
     guidetolerance="10"
     inkscape:pageopacity="0"
     inkscape:pageshadow="2"
     inkscape:window-width="722"
     inkscape:window-height="480"
     id="namedview21"
     showgrid="false"
     inkscape:zoom="10.863561"
     inkscape:cx="14.0255"
     inkscape:cy="10.862"
     inkscape:window-x="183"
     inkscape:window-y="35"
     inkscape:window-maximized="0"
     inkscape:current-layer="svg2" /><g
     id="black"
     display="none"><polygon
       display="inline"
       points="348.216,28.849 -70.245,29.099 -70.245,-7.677 348.216,-7.927  "
       id="polygon5" /></g><g
     id="view_map"
     style="fill:#000000" /><g
     id="live_feed"
     style="fill:#000000"><g
       id="live_feed_icon_3_"
       style="fill:#000000"><g
         id="g10"
         style="fill:#000000"><path
           fill="#FFFFFF"
           d="M28.051,0v18.47c0,1.718-1.499,3.254-3.072,3.254H3.985C1.39,21.724,0,20.372,0,17.08V3.585h3.878V0     H28.051L28.051,0z M3.878,5.56H1.974v11.52c0,1.682,0.402,2.486,0.914,2.486c0.623,0,0.988-0.805,0.988-2.486V5.56H3.878z      M26.076,1.976H5.852V17.08c0,1.17-0.219,2.012-0.549,2.669h19.676c0.658,0,1.098-0.767,1.098-1.278V1.976z M13.641,8.924H8.997     V8.266h4.644V8.924z M13.641,11.083H8.997v-0.66h4.644V11.083z M13.641,13.166H8.997v-0.658h4.644V13.166z M13.641,15.177H8.997     v-0.658h4.644V15.177z M13.641,17.262H8.997v-0.657h4.644V17.262z M9.691,4.865h12.18v1.28H9.691V4.865z M15.471,8.266h7.787     v7.423h-7.787V8.266z"
           id="path12"
           style="fill:#000000" /></g></g></g><g
     id="learn_more"
     style="fill:#000000" /><g
     id="share_your_story"
     style="fill:#000000" /><g
     id="check"
     style="fill:#000000" /><g
     id="camera"
     style="fill:#000000" /><g
     id="zoom_bar"
     style="fill:#000000" /><g
     id="filters"
     style="fill:#000000" /><g
     id="x_close"
     style="fill:#000000" /></svg>