<?xml version="1.0" encoding="UTF-8" standalone="no"?>
<!-- Generator: Adobe Illustrator 16.0.4, SVG Export Plug-In . SVG Version: 6.00 Build 0)  -->

<svg
   xmlns:dc="http://purl.org/dc/elements/1.1/"
   xmlns:cc="http://creativecommons.org/ns#"
   xmlns:rdf="http://www.w3.org/1999/02/22-rdf-syntax-ns#"
   xmlns:svg="http://www.w3.org/2000/svg"
   xmlns="http://www.w3.org/2000/svg"
   xmlns:sodipodi="http://sodipodi.sourceforge.net/DTD/sodipodi-0.dtd"
   xmlns:inkscape="http://www.inkscape.org/namespaces/inkscape"
   version="1.1"
   x="0px"
   y="0px"
   width="19.211px"
   height="23.322px"
   viewBox="0 0 19.211 23.322"
   enable-background="new 0 0 19.211 23.322"
   xml:space="preserve"
   id="svg2"
   inkscape:version="0.91 r13725"
   sodipodi:docname="new icons_learn.svg"><metadata
     id="metadata39"><rdf:RDF><cc:Work
         rdf:about=""><dc:format>image/svg+xml</dc:format><dc:type
           rdf:resource="http://purl.org/dc/dcmitype/StillImage" /></cc:Work></rdf:RDF></metadata><defs
     id="defs37" /><sodipodi:namedview
     pagecolor="#ffffff"
     bordercolor="#666666"
     borderopacity="1"
     objecttolerance="10"
     gridtolerance="10"
     guidetolerance="10"
     inkscape:pageopacity="0"
     inkscape:pageshadow="2"
     inkscape:window-width="722"
     inkscape:window-height="480"
     id="namedview35"
     showgrid="false"
     inkscape:zoom="10.119201"
     inkscape:cx="9.6055002"
     inkscape:cy="11.661"
     inkscape:window-x="180"
     inkscape:window-y="47"
     inkscape:window-maximized="0"
     inkscape:current-layer="svg2" /><g
     id="black"
     display="none"><polygon
       display="inline"
       points="290.793,30.021 -127.667,30.271 -127.667,-6.506 290.793,-6.756  "
       id="polygon5" /></g><g
     id="view_map"
     style="fill:#000000" /><g
     id="live_feed"
     style="fill:#000000" /><g
     id="learn_more"
     style="fill:#000000"><g
       id="learn_more_icon"
       style="fill:#000000"><path
         d="M 12.02,9.411 C 11.592,7.084 9.223,7.149 9.124,7.154 L 9.078,5.979 c 1.206,-0.046 3.609,0.565 4.096,3.219 L 12.02,9.411 Z"
         id="path11"
         style="fill:#000000"
         inkscape:connector-curvature="0" /><path
         d="M 9.484,23.322 C 10.814,23.322 12,23 12,21 l -4.824,0 c 0,2 0.976,2.322 2.308,2.322 z"
         id="path13"
         style="fill:#000000"
         inkscape:connector-curvature="0" /><path
         d="m 9.746,5.261 c 3.083,0 4.258,1.889 4.258,4.442 0,2.166 -2.266,3.297 -2.266,7.297 L 7.52,17 C 7.41,13 5.131,12.215 5.131,9.683 5.131,6.906 6.429,5.261 9.746,5.261 m 0,-1.722 c -4.027,0 -6.337,2.281 -6.337,6.257 0,1.606 0.653,2.818 1.229,3.888 0.572,1.061 1.112,2.088 1.158,3.621 L 5.848,19 l 1.672,0 4.219,0 2.493,0 0,-1.773 c 0,-1.619 0.178,-2.721 0.773,-3.885 0.545,-1.064 0.914,-2.165 0.914,-3.525 0,-3.873 -2.484,-6.278 -6.173,-6.278 l 0,0 z"
         id="path15"
         style="fill:#000000"
         inkscape:connector-curvature="0" /><rect
         x="7.2309999"
         y="20"
         width="5"
         height="1"
         id="rect17"
         style="fill:#000000" /><rect
         x="9.2309999"
         width="1"
         height="3"
         id="rect19"
         style="fill:#000000"
         y="0" /><rect
         x="15.258"
         y="3.095"
         transform="matrix(0.7072,-0.707,0.707,0.7072,2.2692,12.6045)"
         width="2.1900001"
         height="0.935"
         id="rect21"
         style="fill:#000000" /><rect
         x="16.927"
         y="7.7919998"
         transform="matrix(0.9396,-0.3423,0.3423,0.9396,-1.7385,6.6669)"
         width="2.1900001"
         height="0.935"
         id="rect23"
         style="fill:#000000" /><rect
         x="2.3889999"
         y="3.0940001"
         transform="matrix(-0.7069,-0.7073,0.7073,-0.7069,3.4269,8.5446)"
         width="2.1900001"
         height="0.93599999"
         id="rect25"
         style="fill:#000000" /><rect
         x="0.093999997"
         y="7.7919998"
         transform="matrix(-0.9397,-0.3419,0.3419,-0.9397,-0.517,16.4284)"
         width="2.191"
         height="0.935"
         id="rect27"
         style="fill:#000000" /></g></g><g
     id="share_your_story"
     style="fill:#000000" /><g
     id="check"
     style="fill:#000000" /><g
     id="camera"
     style="fill:#000000" /><g
     id="zoom_bar"
     style="fill:#000000" /><g
     id="filters"
     style="fill:#000000" /><g
     id="x_close"
     style="fill:#000000" /></svg>