<?xml version="1.0" encoding="utf-8"?>
<!DOCTYPE svg PUBLIC "-//W3C//DTD SVG 1.1//EN" "http://www.w3.org/Graphics/SVG/1.1/DTD/svg11.dtd">
<svg version="1.1" xmlns="http://www.w3.org/2000/svg" xmlns:xlink="http://www.w3.org/1999/xlink" x="0px" y="0px" width="19.211px" height="23.322px" viewBox="0 0 19.211 23.322" enable-background="new 0 0 19.211 23.322" xml:space="preserve">

<g id="learn_more" style="fill:#000000">
  <g id="learn_more_icon" style="fill:#000000">
    <path
         d="M 12.02,9.411 C 11.592,7.084 9.223,7.149 9.124,7.154 L 9.078,5.979 c 1.206,-0.046 3.609,0.565 4.096,3.219 L 12.02,9.411 Z"
         id="path11"
         style="fill:#000000"
         />
    <path
         d="M 9.484,23.322 C 10.814,23.322 12,23 12,21 l -4.824,0 c 0,2 0.976,2.322 2.308,2.322 z"
         id="path13"
         style="fill:#000000"
         />
    <path
         d="m 9.746,5.261 c 3.083,0 4.258,1.889 4.258,4.442 0,2.166 -2.266,3.297 -2.266,7.297 L 7.52,17 C 7.41,13 5.131,12.215 5.131,9.683 5.131,6.906 6.429,5.261 9.746,5.261 m 0,-1.722 c -4.027,0 -6.337,2.281 -6.337,6.257 0,1.606 0.653,2.818 1.229,3.888 0.572,1.061 1.112,2.088 1.158,3.621 L 5.848,19 l 1.672,0 4.219,0 2.493,0 0,-1.773 c 0,-1.619 0.178,-2.721 0.773,-3.885 0.545,-1.064 0.914,-2.165 0.914,-3.525 0,-3.873 -2.484,-6.278 -6.173,-6.278 l 0,0 z"
         id="path15"
         style="fill:#000000"
         />
    <rect
         x="7.2309999"
         y="20"
         width="5"
         height="1"
         id="rect17"
         style="fill:#000000" />
    <rect
         x="9.2309999"
         width="1"
         height="3"
         id="rect19"
         style="fill:#000000"
         y="0" />
    <rect
         x="15.258"
         y="3.095"
         transform="matrix(0.7072,-0.707,0.707,0.7072,2.2692,12.6045)"
         width="2.1900001"
         height="0.935"
         id="rect21"
         style="fill:#000000" />
    <rect
         x="16.927"
         y="7.7919998"
         transform="matrix(0.9396,-0.3423,0.3423,0.9396,-1.7385,6.6669)"
         width="2.1900001"
         height="0.935"
         id="rect23"
         style="fill:#000000" />
    <rect
         x="2.3889999"
         y="3.0940001"
         transform="matrix(-0.7069,-0.7073,0.7073,-0.7069,3.4269,8.5446)"
         width="2.1900001"
         height="0.93599999"
         id="rect25"
         style="fill:#000000" />
    <rect
         x="0.093999997"
         y="7.7919998"
         transform="matrix(-0.9397,-0.3419,0.3419,-0.9397,-0.517,16.4284)"
         width="2.191"
         height="0.935"
         id="rect27"
         style="fill:#000000" />
    </g>
  </g>
</svg>