<?xml version="1.0" encoding="utf-8"?><!-- Generated by IcoMoon.io --><!DOCTYPE svg PUBLIC "-//W3C//DTD SVG 1.1//EN" "http://www.w3.org/Graphics/SVG/1.1/DTD/svg11.dtd"><svg version="1.1" xmlns="http://www.w3.org/2000/svg" xmlns:xlink="http://www.w3.org/1999/xlink" width="16" height="16" viewBox="0 0 16 16" data-tags="target,goal,location,spot"><g fill="#444" transform="scale(0.015625 0.015625)"><path d="M1024 448h-100.924c-27.64-178.24-168.836-319.436-347.076-347.076v-100.924h-128v100.924c-178.24 27.64-319.436 168.836-347.076 347.076h-100.924v128h100.924c27.64 178.24 168.836 319.436 347.076 347.076v100.924h128v-100.924c178.24-27.64 319.436-168.836 347.076-347.076h100.924v-128zM792.822 448h-99.762c-19.284-54.55-62.51-97.778-117.060-117.060v-99.762c107.514 24.49 192.332 109.31 216.822 216.822zM512 576c-35.346 0-64-28.654-64-64s28.654-64 64-64c35.346 0 64 28.654 64 64s-28.654 64-64 64zM448 231.178v99.762c-54.55 19.282-97.778 62.51-117.060 117.060h-99.762c24.49-107.512 109.31-192.332 216.822-216.822zM231.178 576h99.762c19.282 54.55 62.51 97.778 117.060 117.060v99.762c-107.512-24.49-192.332-109.308-216.822-216.822zM576 792.822v-99.762c54.55-19.284 97.778-62.51 117.060-117.060h99.762c-24.49 107.514-109.308 192.332-216.822 216.822z" /></g></svg>