<?xml version="1.0" standalone="no"?>
<!DOCTYPE svg PUBLIC "-//W3C//DTD SVG 20010904//EN"
 "http://www.w3.org/TR/2001/REC-SVG-20010904/DTD/svg10.dtd">
<svg version="1.0" xmlns="http://www.w3.org/2000/svg"
 width="146.000000pt" height="146.000000pt" viewBox="0 0 146.000000 146.000000"
 preserveAspectRatio="xMidYMid meet">
<metadata>
Created by potrace 1.10, written by Peter Selinger 2001-2011
</metadata>
<g transform="translate(0.000000,146.000000) scale(0.050000,-0.050000)"
fill="#000000" stroke="none">
<path d="M1040 1953 l0 -66 483 0 483 0 0 -427 -1 -426 -483 0 -482 0 0 -67 0
-67 550 0 550 0 0 560 0 560 -550 0 -550 0 0 -67z"/>
<path d="M1242 1777 l-49 -39 108 -109 108 -109 -285 0 -284 0 0 -60 0 -60
285 0 285 -1 -107 -102 -106 -103 47 -47 47 -47 181 185 182 185 -182 173
-182 173 -48 -39z"/>
</g>
</svg>
