<?xml version="1.0" encoding="UTF-8" standalone="no"?>
<!-- Generator: Adobe Illustrator 16.2.1, SVG Export Plug-In . SVG Version: 6.00 Build 0)  -->

<svg
   xmlns:dc="http://purl.org/dc/elements/1.1/"
   xmlns:cc="http://creativecommons.org/ns#"
   xmlns:rdf="http://www.w3.org/1999/02/22-rdf-syntax-ns#"
   xmlns:svg="http://www.w3.org/2000/svg"
   xmlns="http://www.w3.org/2000/svg"
   xmlns:sodipodi="http://sodipodi.sourceforge.net/DTD/sodipodi-0.dtd"
   xmlns:inkscape="http://www.inkscape.org/namespaces/inkscape"
   version="1.1"
   id="Layer_1"
   x="0px"
   y="0px"
   width="512px"
   height="512px"
   viewBox="0 0 512 512"
   style="enable-background:new 0 0 512 512;"
   xml:space="preserve"
   inkscape:version="0.91 r13725"
   sodipodi:docname="search.svg"><metadata
     id="metadata9"><rdf:RDF><cc:Work
         rdf:about=""><dc:format>image/svg+xml</dc:format><dc:type
           rdf:resource="http://purl.org/dc/dcmitype/StillImage" /></cc:Work></rdf:RDF></metadata><defs
     id="defs7" /><sodipodi:namedview
     pagecolor="#ffffff"
     bordercolor="#666666"
     borderopacity="1"
     objecttolerance="10"
     gridtolerance="10"
     guidetolerance="10"
     inkscape:pageopacity="0"
     inkscape:pageshadow="2"
     inkscape:window-width="901"
     inkscape:window-height="650"
     id="namedview5"
     showgrid="false"
     inkscape:zoom="0.4609375"
     inkscape:cx="233.7825"
     inkscape:cy="210.03636"
     inkscape:window-x="60"
     inkscape:window-y="6"
     inkscape:window-maximized="0"
     inkscape:current-layer="Layer_1" /><path
     d="M 364.40489,302.89941 C 383.6002,272.69879 394.86145,236.86754 394.86145,198.34895 394.86145,90.72723 307.71473,3.4525436 200.22098,3.4525436 92.599261,3.4525436 5.4525436,90.72723 5.4525436,198.34895 c 0,107.62171 87.1467174,194.8964 194.6404664,194.8964 39.03047,0 75.37359,-11.51719 105.83015,-31.22437 l 8.82985,-6.1425 138.97407,138.97406 43.12546,-43.89328 -138.84609,-138.97406 6.39844,-9.08579 z M 309.25035,89.447542 c 29.04891,29.048908 45.045,67.695468 45.045,108.773438 0,41.07797 -15.99609,79.72453 -45.045,108.77343 -29.0489,29.04892 -67.69546,45.045 -108.77344,45.045 -41.07796,0 -79.72452,-15.99608 -108.77343,-45.045 -29.048906,-29.0489 -45.044999,-67.69546 -45.044999,-108.77343 0,-41.07797 15.996093,-79.72453 45.044999,-108.773438 29.04891,-29.048905 67.69547,-45.044999 108.77343,-45.044999 41.07798,0 79.72454,15.996094 108.77344,45.044999 z"
     id="path3"
     inkscape:connector-curvature="0"
     style="fill:#000000" /></svg>