<?xml version="1.0" encoding="utf-8"?>
<!DOCTYPE svg PUBLIC "-//W3C//DTD SVG 1.1//EN" "http://www.w3.org/Graphics/SVG/1.1/DTD/svg11.dtd">
<svg version="1.1" xmlns="http://www.w3.org/2000/svg" xmlns:xlink="http://www.w3.org/1999/xlink" x="0px" y="0px" width="512px" height="512px" viewBox="0 0 512 512" style="enable-background:new 0 0 512 512;" xml:space="preserve">

<path
     d="M 364.40489,302.89941 C 383.6002,272.69879 394.86145,236.86754 394.86145,198.34895 394.86145,90.72723 307.71473,3.4525436 200.22098,3.4525436 92.599261,3.4525436 5.4525436,90.72723 5.4525436,198.34895 c 0,107.62171 87.1467174,194.8964 194.6404664,194.8964 39.03047,0 75.37359,-11.51719 105.83015,-31.22437 l 8.82985,-6.1425 138.97407,138.97406 43.12546,-43.89328 -138.84609,-138.97406 6.39844,-9.08579 z M 309.25035,89.447542 c 29.04891,29.048908 45.045,67.695468 45.045,108.773438 0,41.07797 -15.99609,79.72453 -45.045,108.77343 -29.0489,29.04892 -67.69546,45.045 -108.77344,45.045 -41.07796,0 -79.72452,-15.99608 -108.77343,-45.045 -29.048906,-29.0489 -45.044999,-67.69546 -45.044999,-108.77343 0,-41.07797 15.996093,-79.72453 45.044999,-108.773438 29.04891,-29.048905 67.69547,-45.044999 108.77343,-45.044999 41.07798,0 79.72454,15.996094 108.77344,45.044999 z"
     id="path3"
     style="fill:#000000" />
   </svg>